<?xml version="1.0" encoding="utf-8"?>
<svg xmlns="http://www.w3.org/2000/svg" viewBox="0 0 64 64" width="64px" height="64px">
  <path fill="#F24870" d="M 30.189 6.257 L 5.391 7.359 C -0.73 7.358 0 6.404 0.054 2.348 C 0.092 -0.351 2.869 0.014 5.379 0.018 L 57.514 0.022 C 63.545 0.018 64.025 -0.137 63.999 4.236 L 63.995 13.671 C 63.993 17.445 63.947 18.664 58.325 18.13 C 55.793 17.889 56.116 15.795 56.12 14.389 L 56.134 10.618 C 56.15 9.069 56.176 6.42 52.182 5.775 C 45.483 4.692 32.957 6.257 30.189 6.257 Z" style="transform-origin: 32px 32px;"/>
  <path fill="#F24870" d="M 28.261 4.674 C 29.174 4.665 36.844 4.665 36.099 4.674 C 36.043 5.171 36.097 54.048 36.097 54.048 C 36.097 57.733 36.537 60.048 31.976 62.469 C 25.141 66.094 12.202 62.998 13.954 56.15 C 15.23 51.162 22.501 49.781 28.261 50.693 L 28.261 4.674 Z" style="transform-origin: 32px 32px;"/>
</svg>